<svg id="visual" viewBox="0 0 3000 1687" width="3000" height="1687" xmlns="http://www.w3.org/2000/svg" xmlns:xlink="http://www.w3.org/1999/xlink" version="1.1"><rect x="0" y="0" width="3000" height="1687" fill="#e7d49e"></rect><path d="M2113 1687L2083.2 1630.8C2053.3 1574.7 1993.7 1462.3 1976.8 1349.8C1960 1237.3 1986 1124.7 2014 1012.2C2042 899.7 2072 787.3 2054.8 674.8C2037.7 562.3 1973.3 449.7 1945.3 337.2C1917.3 224.7 1925.7 112.3 1929.8 56.2L1934 0L3000 0L3000 56.2C3000 112.3 3000 224.7 3000 337.2C3000 449.7 3000 562.3 3000 674.8C3000 787.3 3000 899.7 3000 1012.2C3000 1124.7 3000 1237.3 3000 1349.8C3000 1462.3 3000 1574.7 3000 1630.8L3000 1687Z" fill="#4e0e0e"></path><path d="M2266 1687L2269 1630.8C2272 1574.7 2278 1462.3 2309 1349.8C2340 1237.3 2396 1124.7 2421 1012.2C2446 899.7 2440 787.3 2441.5 674.8C2443 562.3 2452 449.7 2427 337.2C2402 224.7 2343 112.3 2313.5 56.2L2284 0L3000 0L3000 56.2C3000 112.3 3000 224.7 3000 337.2C3000 449.7 3000 562.3 3000 674.8C3000 787.3 3000 899.7 3000 1012.2C3000 1124.7 3000 1237.3 3000 1349.8C3000 1462.3 3000 1574.7 3000 1630.8L3000 1687Z" fill="#460a0b"></path><path d="M2330 1687L2367.8 1630.8C2405.7 1574.7 2481.3 1462.3 2525.3 1349.8C2569.3 1237.3 2581.7 1124.7 2567 1012.2C2552.3 899.7 2510.7 787.3 2503.5 674.8C2496.3 562.3 2523.7 449.7 2499.8 337.2C2476 224.7 2401 112.3 2363.5 56.2L2326 0L3000 0L3000 56.2C3000 112.3 3000 224.7 3000 337.2C3000 449.7 3000 562.3 3000 674.8C3000 787.3 3000 899.7 3000 1012.2C3000 1124.7 3000 1237.3 3000 1349.8C3000 1462.3 3000 1574.7 3000 1630.8L3000 1687Z" fill="#3e0607"></path><path d="M2556 1687L2573.7 1630.8C2591.3 1574.7 2626.7 1462.3 2638 1349.8C2649.3 1237.3 2636.7 1124.7 2655 1012.2C2673.3 899.7 2722.7 787.3 2740.5 674.8C2758.3 562.3 2744.7 449.7 2712.5 337.2C2680.3 224.7 2629.7 112.3 2604.3 56.2L2579 0L3000 0L3000 56.2C3000 112.3 3000 224.7 3000 337.2C3000 449.7 3000 562.3 3000 674.8C3000 787.3 3000 899.7 3000 1012.2C3000 1124.7 3000 1237.3 3000 1349.8C3000 1462.3 3000 1574.7 3000 1630.8L3000 1687Z" fill="#370303"></path></svg>